<svg width="61" height="61" viewBox="0 0 61 61" fill="none" xmlns="http://www.w3.org/2000/svg">
<g clip-path="url(#clip0_41_4269)">
<path d="M50.797 25.3332V11.1665C50.797 9.66359 50.1788 8.22225 49.0783 7.15954C47.9779 6.09684 46.4853 5.49982 44.929 5.49982H6.78695C5.23066 5.49982 3.73811 6.09684 2.63765 7.15954C1.53718 8.22225 0.918945 9.66359 0.918945 11.1665V50.8332C0.918945 52.336 1.53718 53.7774 2.63765 54.8401C3.73811 55.9028 5.23066 56.4998 6.78695 56.4998H21.457" stroke="#0078BE" stroke-linecap="round" stroke-linejoin="round"/>
<path d="M19.2568 40.937H21.4568" stroke="#0078BE" stroke-width="0.5" stroke-linecap="round" stroke-linejoin="round"/>
<path d="M19.2568 29.6036H33.1934" stroke="#0078BE" stroke-width="0.5" stroke-linecap="round" stroke-linejoin="round"/>
<path d="M19.2568 18.6243H39.0614" stroke="#0078BE" stroke-width="0.5" stroke-linecap="round" stroke-linejoin="round"/>
<circle cx="10.0802" cy="39.3934" r="2.1556" fill="#0078BE"/>
<circle cx="10.0802" cy="27.8968" r="2.1556" fill="#0078BE"/>
<circle cx="10.08" cy="17.8375" r="3.59266" fill="#0078BE"/>
<circle cx="10.08" cy="29.3339" r="3.59266" fill="#0078BE"/>
<circle cx="10.08" cy="40.8305" r="3.59266" fill="#0078BE"/>
<path d="M43.4625 33.8331C46.0739 33.8331 48.6265 34.5808 50.7977 35.9818C52.969 37.3828 54.6612 39.3741 55.6605 41.7039C56.6598 44.0336 56.9213 46.5972 56.4119 49.0705C55.9024 51.5437 54.645 53.8156 52.7985 55.5987C50.952 57.3818 48.5995 58.5961 46.0383 59.0881C43.4772 59.58 40.8225 59.3276 38.41 58.3625C35.9974 57.3975 33.9354 55.7633 32.4846 53.6666C31.0339 51.5699 30.2595 49.1048 30.2595 46.5831C30.2595 43.2016 31.6506 39.9585 34.1266 37.5675C36.6026 35.1764 39.9609 33.8331 43.4625 33.8331" stroke="#0078BE" stroke-linecap="round" stroke-linejoin="round"/>
<path d="M37.3232 47.6533V45.6025H42.6455V40.2437H44.7329V45.6025H50.0552V47.6533H44.7329V53H42.6455V47.6533H37.3232Z" fill="#0078BE"/>
</g>
<defs>
<clipPath id="clip0_41_4269">
<rect width="61" height="61" fill="white"/>
</clipPath>
</defs>
</svg>
