<svg width="64" height="78" viewBox="0 0 64 78" fill="none" xmlns="http://www.w3.org/2000/svg">
<g opacity="0.25">
<path d="M43.6307 12.5976L34.8543 3.82121C34.2792 3.24392 33.5958 2.78588 32.8432 2.47335C32.0906 2.16082 31.2838 1.99996 30.4689 2H8.20662C7.39135 1.99927 6.58394 2.15931 5.83058 2.47096C5.07723 2.78261 4.39273 3.23976 3.81624 3.81624C3.23976 4.39272 2.78261 5.07723 2.47096 5.83058C2.15931 6.58394 1.99927 7.39135 2 8.20662V51.6586C1.99927 52.4738 2.15931 53.2813 2.47096 54.0346C2.78261 54.788 3.23976 55.4725 3.81624 56.0489C4.39273 56.6254 5.07723 57.0826 5.83058 57.3942C6.58394 57.7059 7.39135 57.8659 8.20662 57.8652H39.2453C40.0606 57.8659 40.868 57.7059 41.6214 57.3942C42.3747 57.0826 43.0592 56.6254 43.6357 56.0489C44.2122 55.4725 44.6693 54.788 44.981 54.0346C45.2926 53.2813 45.4527 52.4738 45.4519 51.6586V16.983C45.4519 15.3406 44.7983 13.7596 43.6307 12.5976V12.5976Z" stroke="#2ECC71" stroke-width="3" stroke-linecap="round" stroke-linejoin="round"/>
<path d="M32.7881 2.74819L43.7617 13.4723L44.5099 15.7169V19.4579L27.5508 2.24939H30.5436L32.7881 2.74819Z" fill="#2ECC71" stroke="#2ECC71"/>
<path d="M45.4482 20.1562H30.9232C29.9602 20.1562 29.0365 19.7736 28.3556 19.0926C27.6746 18.4116 27.292 17.488 27.292 16.5249V2" fill="#2ECC71"/>
<path d="M45.4482 20.1562H30.9232C29.9602 20.1562 29.0365 19.7736 28.3556 19.0926C27.6746 18.4116 27.292 17.488 27.292 16.5249V2" stroke="#2ECC71" stroke-width="3" stroke-linecap="round" stroke-linejoin="round"/>
</g>
<path d="M15.3906 25.4435H38.8781" stroke="#2ECC71" stroke-width="3" stroke-linecap="round" stroke-linejoin="round"/>
<path d="M9.04242 23.947C8.84534 23.947 8.65023 23.9863 8.46852 24.0626C8.2868 24.1389 8.12215 24.2507 7.98417 24.3914C7.8462 24.5321 7.73769 24.699 7.66501 24.8822C7.59232 25.0653 7.5569 25.2612 7.56084 25.4582C7.56084 26.2879 8.24237 26.9398 9.07205 26.9398C9.46777 26.9399 9.84772 26.7848 10.1303 26.5077C10.4129 26.2307 10.5755 25.8539 10.5833 25.4582C10.5682 25.0571 10.4001 24.6771 10.1135 24.396C9.82699 24.115 9.44373 23.9543 9.04242 23.947" fill="#2ECC71"/>
<path d="M9.04242 23.947C8.84534 23.947 8.65023 23.9863 8.46852 24.0626C8.2868 24.1389 8.12215 24.2507 7.98417 24.3914C7.8462 24.5321 7.73769 24.699 7.66501 24.8822C7.59232 25.0653 7.5569 25.2612 7.56084 25.4582C7.56084 26.2879 8.24237 26.9398 9.07205 26.9398C9.46777 26.9399 9.84772 26.7848 10.1303 26.5077C10.4129 26.2307 10.5755 25.8539 10.5833 25.4582C10.5682 25.0571 10.4001 24.6771 10.1135 24.396C9.82699 24.115 9.44373 23.9543 9.04242 23.947" stroke="#2ECC71" stroke-width="3" stroke-linecap="round" stroke-linejoin="round"/>
<path d="M39.2192 5.49158C38.8614 5.4915 38.5073 5.56353 38.1774 5.70342C37.8476 5.84331 37.5487 6.04825 37.2983 6.30626C37.0478 6.56426 36.8509 6.87016 36.7189 7.206C36.587 7.54184 36.5227 7.90086 36.5298 8.2621C36.5298 9.78319 37.7669 10.9783 39.2729 10.9783C39.9912 10.9785 40.6809 10.6941 41.1938 10.1862C41.7067 9.67831 42.002 8.98744 42.0161 8.2621C41.9887 7.52678 41.6836 6.82999 41.1634 6.31475C40.6433 5.79951 39.9476 5.50494 39.2192 5.49158" fill="#2ECC71"/>
<path d="M39.2192 5.49158C38.8614 5.4915 38.5073 5.56353 38.1774 5.70342C37.8476 5.84331 37.5487 6.04825 37.2983 6.30626C37.0478 6.56426 36.8509 6.87016 36.7189 7.206C36.587 7.54184 36.5227 7.90086 36.5298 8.2621C36.5298 9.78319 37.7669 10.9783 39.2729 10.9783C39.9912 10.9785 40.6809 10.6941 41.1938 10.1862C41.7067 9.67831 42.002 8.98744 42.0161 8.2621C41.9887 7.52678 41.6836 6.82999 41.1634 6.31475C40.6433 5.79951 39.9476 5.50494 39.2192 5.49158" stroke="#2ECC71" stroke-width="3" stroke-linecap="round" stroke-linejoin="round"/>
<path d="M15.3906 36.417H38.8781" stroke="#2ECC71" stroke-width="3" stroke-linecap="round" stroke-linejoin="round"/>
<path d="M9.0279 34.9205C8.83275 34.9205 8.63955 34.9594 8.45962 35.0349C8.27969 35.1105 8.11664 35.2212 7.98002 35.3605C7.8434 35.4999 7.73596 35.6651 7.66398 35.8465C7.592 36.0279 7.55694 36.2218 7.56084 36.4169C7.56084 37.2385 8.23569 37.9133 9.05724 37.9133C9.8788 37.9133 10.5536 37.2385 10.5536 36.4169C10.5536 35.5954 9.84946 34.9205 9.0279 34.9205" fill="#2ECC71"/>
<path d="M9.0279 34.9205C8.83275 34.9205 8.63955 34.9594 8.45962 35.0349C8.27969 35.1105 8.11664 35.2212 7.98002 35.3605C7.8434 35.4999 7.73596 35.6651 7.66398 35.8465C7.592 36.0279 7.55694 36.2218 7.56084 36.4169C7.56084 37.2385 8.23569 37.9133 9.05724 37.9133C9.8788 37.9133 10.5536 37.2385 10.5536 36.4169C10.5536 35.5954 9.84946 34.9205 9.0279 34.9205" stroke="#2ECC71" stroke-width="3" stroke-linecap="round" stroke-linejoin="round"/>
<path d="M15.3906 47.3905H38.8781" stroke="#2ECC71" stroke-width="3" stroke-linecap="round" stroke-linejoin="round"/>
<path d="M9.04242 45.8942C8.84534 45.8941 8.65023 45.9334 8.46852 46.0097C8.2868 46.086 8.12215 46.1978 7.98417 46.3385C7.8462 46.4793 7.73769 46.6461 7.66501 46.8293C7.59232 47.0125 7.5569 47.2083 7.56084 47.4054C7.56084 48.235 8.24237 48.8869 9.07205 48.8869C9.46777 48.887 9.84772 48.7319 10.1303 48.4549C10.4129 48.1778 10.5755 47.801 10.5833 47.4054C10.5682 47.0043 10.4001 46.6242 10.1135 46.3432C9.82699 46.0621 9.44373 45.9015 9.04242 45.8942" fill="#2ECC71"/>
<path d="M9.04242 45.8942C8.84534 45.8941 8.65023 45.9334 8.46852 46.0097C8.2868 46.086 8.12215 46.1978 7.98417 46.3385C7.8462 46.4793 7.73769 46.6461 7.66501 46.8293C7.59232 47.0125 7.5569 47.2083 7.56084 47.4054C7.56084 48.235 8.24237 48.8869 9.07205 48.8869C9.46777 48.887 9.84772 48.7319 10.1303 48.4549C10.4129 48.1778 10.5755 47.801 10.5833 47.4054C10.5682 47.0043 10.4001 46.6242 10.1135 46.3432C9.82699 46.0621 9.44373 45.9015 9.04242 45.8942" stroke="#2ECC71" stroke-width="3" stroke-linecap="round" stroke-linejoin="round"/>
<path d="M56.7301 31.429C58.1236 27.2702 59.7069 25.4936 63.7133 23.947C59.5545 22.5535 58.0273 20.9703 56.4807 16.9639C55.0872 21.1226 53.504 22.8992 49.4976 24.4458C53.6563 25.8393 55.1835 27.4226 56.7301 31.429Z" fill="#2ECC71"/>
<path d="M22.5673 77.8258C23.4331 75.242 24.4167 74.1382 26.9059 73.1773C24.322 72.3116 23.3732 71.3279 22.4123 68.8387C21.5465 71.4226 20.5629 72.5263 18.0737 73.4872C20.6576 74.353 21.6064 75.3367 22.5673 77.8258Z" fill="#2ECC71"/>
<path d="M11.5848 66.336C12.0645 64.9045 12.6095 64.2929 13.9886 63.7606C12.557 63.2809 12.0313 62.7359 11.499 61.3568C11.0193 62.7884 10.4743 63.3999 9.09521 63.9323C10.5268 64.4119 11.0524 64.9569 11.5848 66.336Z" fill="#2ECC71"/>
<path d="M45.5076 68.8387C41.4066 68.8387 37.4737 67.2096 34.5738 64.3098C31.674 61.41 30.0449 57.477 30.0449 53.376C30.0449 49.2751 31.674 45.3421 34.5738 42.4422C37.4737 39.5424 41.4066 37.9133 45.5076 37.9133C49.6086 37.9133 53.5416 39.5424 56.4414 42.4422C59.3412 45.3421 60.9703 49.2751 60.9703 53.376C60.9703 57.477 59.3412 61.41 56.4414 64.3098C53.5416 67.2096 49.6086 68.8387 45.5076 68.8387V68.8387Z" fill="#2ECC71" stroke="#2ECC71" stroke-opacity="0.25" stroke-width="6" stroke-linecap="round" stroke-linejoin="round"/>
<path d="M52.3799 49.9398L43.7895 58.5302L38.6353 53.376" fill="#2ECC71"/>
<path d="M52.3799 49.9398L43.7895 58.5302L38.6353 53.376" stroke="white" stroke-width="4" stroke-linecap="round" stroke-linejoin="round"/>
</svg>
