<svg width="20" height="20" viewBox="0 0 20 20" fill="none" xmlns="http://www.w3.org/2000/svg">
<path d="M17 19H3C2.46957 19 1.96086 18.7893 1.58579 18.4142C1.21071 18.0391 1 17.5304 1 17V3C1 2.46957 1.21071 1.96086 1.58579 1.58579C1.96086 1.21071 2.46957 1 3 1H17C17.5304 1 18.0391 1.21071 18.4142 1.58579C18.7893 1.96086 19 2.46957 19 3V17C19 17.5304 18.7893 18.0391 18.4142 18.4142C18.0391 18.7893 17.5304 19 17 19Z" stroke="#6B7280" stroke-linecap="round" stroke-linejoin="round"/>
<path d="M10 11.25V11C10 10.183 10.505 9.74001 11.011 9.40001C11.505 9.06701 12 8.63301 12 7.83301C12 7.30257 11.7893 6.79387 11.4142 6.41879C11.0391 6.04372 10.5304 5.83301 10 5.83301C9.46957 5.83301 8.96086 6.04372 8.58579 6.41879C8.21071 6.79387 8 7.30257 8 7.83301" stroke="#6B7280" stroke-linecap="round" stroke-linejoin="round"/>
<path d="M9.999 14C9.9496 14.0002 9.90136 14.015 9.86038 14.0426C9.8194 14.0702 9.78751 14.1093 9.76874 14.155C9.74998 14.2007 9.74517 14.251 9.75493 14.2994C9.76469 14.3478 9.78857 14.3923 9.82358 14.4271C9.85858 14.462 9.90313 14.4857 9.95159 14.4953C10.0001 14.5048 10.0503 14.4998 10.0959 14.4809C10.1415 14.4619 10.1805 14.4299 10.2079 14.3888C10.2354 14.3477 10.25 14.2994 10.25 14.25C10.25 14.2171 10.2435 14.1845 10.2309 14.1541C10.2182 14.1237 10.1997 14.0961 10.1764 14.0729C10.1531 14.0496 10.1254 14.0312 10.095 14.0187C10.0645 14.0062 10.0319 13.9999 9.999 14Z" fill="#6B7280" stroke="#6B7280" stroke-linecap="round" stroke-linejoin="round"/>
</svg>
