<svg width="821" height="107" viewBox="0 0 821 107" fill="none" xmlns="http://www.w3.org/2000/svg">
<g opacity="0.2">
<rect x="224" y="31.3032" width="69" height="1.70745" rx="0.853723" fill="#1562AF" fill-opacity="0.14"/>
<rect x="299" y="31.3032" width="77" height="1.70745" rx="0.853723" fill="#1562AF" fill-opacity="0.34"/>
<rect x="311" y="37.5638" width="36" height="1.70745" rx="0.853723" fill="#1562AF" fill-opacity="0.14"/>
<rect x="342" y="57.0107" width="69" height="1.70745" rx="0.853723" transform="rotate(-180 342 57.0107)" fill="#1562AF" fill-opacity="0.14"/>
<rect x="425" y="57.0107" width="77" height="1.70745" rx="0.853723" transform="rotate(-180 425 57.0107)" fill="#1562AF" fill-opacity="0.34"/>
<rect x="396" y="63.2713" width="36" height="1.70745" rx="0.853723" transform="rotate(-180 396 63.2713)" fill="#1562AF" fill-opacity="0.14"/>
<rect x="486" y="53.2713" width="36" height="1.70745" rx="0.853723" transform="rotate(-180 486 53.2713)" fill="#1562AF" fill-opacity="0.14"/>
<rect x="12" width="144" height="1.70745" rx="0.853723" fill="#1562AF" fill-opacity="0.14"/>
<rect x="163" width="136" height="1.70745" rx="0.853723" fill="#1562AF" fill-opacity="0.34"/>
<rect width="46" height="1.70745" rx="0.853723" transform="matrix(-1 0 0 1 352 0)" fill="#1562AF" fill-opacity="0.14"/>
<rect width="142" height="2" rx="1" transform="matrix(1 0 0 -1 103 10)" fill="#1562AF" fill-opacity="0.14"/>
<rect x="12" y="6" width="49" height="2" rx="1" fill="#1562AF" fill-opacity="0.34"/>
<rect x="4" y="89" width="49" height="2" rx="1" fill="#1562AF" fill-opacity="0.34"/>
<rect x="287" y="6.26065" width="28" height="1.70745" rx="0.853723" fill="#1562AF" fill-opacity="0.34"/>
<rect x="252" y="6.26065" width="28" height="1.70745" rx="0.853723" fill="#1562AF" fill-opacity="0.14"/>
<rect x="322" y="6.26065" width="83" height="1.70745" rx="0.853723" fill="#1562AF" fill-opacity="0.14"/>
<rect x="296" y="12.5213" width="89" height="1.70745" rx="0.853723" fill="#1562AF" fill-opacity="0.14"/>
<rect x="429" y="92.7713" width="19" height="1.70745" rx="0.853723" fill="#1562AF" fill-opacity="0.14"/>
<rect x="146" y="12.5213" width="143" height="1.70745" rx="0.853723" fill="#1562AF" fill-opacity="0.34"/>
<rect x="107" y="12.5213" width="32" height="1.70745" rx="0.853723" fill="#1562AF" fill-opacity="0.14"/>
<rect x="361" y="18.7819" width="60" height="1.70745" rx="0.853723" fill="#1562AF" fill-opacity="0.34"/>
<rect x="213" y="18.7819" width="142" height="1.70745" rx="0.853723" fill="#1562AF" fill-opacity="0.14"/>
<rect x="346" y="99.0319" width="51" height="1.70745" rx="0.853723" fill="#1562AF" fill-opacity="0.14"/>
<rect x="404" y="99.0319" width="62" height="1.70745" rx="0.853723" fill="#1562AF" fill-opacity="0.34"/>
<rect x="175" y="18.7819" width="31" height="1.70745" rx="0.853723" fill="#1562AF" fill-opacity="0.14"/>
<rect x="110" y="92.5213" width="143" height="1.70745" rx="0.853723" fill="#1562AF" fill-opacity="0.34"/>
<rect x="177" y="98.7819" width="142" height="1.70745" rx="0.853723" fill="#1562AF" fill-opacity="0.14"/>
<rect x="139" y="98.7819" width="31" height="1.70745" rx="0.853723" fill="#1562AF" fill-opacity="0.14"/>
<rect y="18" width="25" height="1.70745" rx="0.853723" fill="#1562AF" fill-opacity="0.14"/>
<rect x="12" y="105.293" width="72" height="1.70745" rx="0.853723" fill="#1562AF" fill-opacity="0.14"/>
<rect x="91" y="105.293" width="55" height="1.70745" rx="0.853723" fill="#1562AF" fill-opacity="0.34"/>
</g>
<g opacity="0.2">
<rect width="61" height="1.36017" rx="0.680085" transform="matrix(-1 0 0 1 633 75.7161)" fill="#1562AF" fill-opacity="0.14"/>
<rect width="94" height="1.36017" rx="0.680085" transform="matrix(-1 0 0 1 620 68.7161)" fill="#1562AF" fill-opacity="0.34"/>
<rect width="82" height="1.36017" rx="0.680085" transform="matrix(-1 0 0 1 513 59.7161)" fill="#1562AF" fill-opacity="0.14"/>
<rect width="68" height="1.36017" rx="0.680085" transform="matrix(-1 0 0 1 566 75.7161)" fill="#1562AF" fill-opacity="0.34"/>
<rect width="42" height="1.36017" rx="0.680085" transform="matrix(-1 0 0 1 492 80.7034)" fill="#1562AF" fill-opacity="0.34"/>
<rect width="32" height="1.36017" rx="0.680085" transform="matrix(-1 0 0 1 530 80.7034)" fill="#1562AF" fill-opacity="0.14"/>
<rect width="122" height="1.36017" rx="0.680085" transform="matrix(-1 0 0 1 658 80.7034)" fill="#1562AF" fill-opacity="0.14"/>
<rect width="93" height="1.36017" rx="0.680085" transform="matrix(-1 0 0 1 757 80.7034)" fill="#1562AF" fill-opacity="0.14"/>
<rect width="58" height="1.36017" rx="0.680085" transform="matrix(-1 0 0 1 513 64.7034)" fill="#1562AF" fill-opacity="0.34"/>
<rect width="118" height="1.36017" rx="0.680085" transform="matrix(-1 0 0 1 821 0)" fill="#1562AF" fill-opacity="0.14"/>
<rect width="128" height="1.36017" rx="0.680085" transform="matrix(-1 0 0 1 513 69.6906)" fill="#1562AF" fill-opacity="0.14"/>
<rect width="112" height="1.36017" rx="0.680085" transform="matrix(-1 0 0 1 697 0)" fill="#1562AF" fill-opacity="0.34"/>
<rect width="121" height="1.36017" rx="0.680085" transform="matrix(-1 0 0 1 640 85.6906)" fill="#1562AF" fill-opacity="0.14"/>
<rect width="68" height="1.36017" rx="0.680085" transform="matrix(-1 0 0 1 318 82.7161)" fill="#1562AF" fill-opacity="0.34"/>
<rect width="122" height="1.36017" rx="0.680085" transform="matrix(-1 0 0 1 410 87.7034)" fill="#1562AF" fill-opacity="0.14"/>
<rect width="121" height="1.36017" rx="0.680085" transform="matrix(-1 0 0 1 392 92.6906)" fill="#1562AF" fill-opacity="0.14"/>
<rect x="541" width="38" height="1.36017" rx="0.680085" fill="#1562AF" fill-opacity="0.14"/>
<rect x="338" y="69.6906" width="41" height="1.36017" rx="0.680085" fill="#1562AF" fill-opacity="0.34"/>
<rect width="92" height="1.36017" rx="0.680085" transform="matrix(-1 0 0 1 721 4.9873)" fill="#1562AF" fill-opacity="0.14"/>
<rect width="99" height="1.36017" rx="0.680085" transform="matrix(-1 0 0 1 713 90.6779)" fill="#1562AF" fill-opacity="0.14"/>
<rect width="94" height="1.36017" rx="0.680085" transform="matrix(-1 0 0 1 821 4.9873)" fill="#1562AF" fill-opacity="0.34"/>
<rect width="102" height="1.36017" rx="0.680085" transform="matrix(-1 0 0 1 821 90.6779)" fill="#1562AF" fill-opacity="0.34"/>
<rect width="23" height="1.36017" rx="0.680085" transform="matrix(-1 0 0 1 595 4.9873)" fill="#1562AF" fill-opacity="0.34"/>
<rect width="23" height="1.36017" rx="0.680085" transform="matrix(-1 0 0 1 624 4.9873)" fill="#1562AF" fill-opacity="0.14"/>
<rect width="62" height="1.36017" rx="0.680085" transform="matrix(-1 0 0 1 608 90.6779)" fill="#1562AF" fill-opacity="0.34"/>
<rect width="68" height="1.36017" rx="0.680085" transform="matrix(-1 0 0 1 566 4.9873)" fill="#1562AF" fill-opacity="0.14"/>
<rect width="79" height="1.36017" rx="0.680085" transform="matrix(-1 0 0 1 569 20.483)" fill="#1562AF" fill-opacity="0.14"/>
<rect width="79" height="1.36017" rx="0.680085" transform="matrix(-1 0 0 1 569 95.6652)" fill="#1562AF" fill-opacity="0.34"/>
<rect width="127" height="1.36017" rx="0.680085" transform="matrix(-1 0 0 1 702 14.483)" fill="#1562AF" fill-opacity="0.14"/>
<rect width="127" height="1.36017" rx="0.680085" transform="matrix(-1 0 0 1 702 95.6652)" fill="#1562AF" fill-opacity="0.14"/>
<rect width="29" height="1.36017" rx="0.680085" transform="matrix(-1 0 0 1 737 14.483)" fill="#1562AF" fill-opacity="0.34"/>
<rect width="29" height="1.36017" rx="0.680085" transform="matrix(-1 0 0 1 737 95.6652)" fill="#1562AF" fill-opacity="0.34"/>
<rect width="78" height="1.36017" rx="0.680085" transform="matrix(-1 0 0 1 600 50.483)" fill="#1562AF" fill-opacity="0.14"/>
<rect width="78" height="1.36017" rx="0.680085" transform="matrix(-1 0 0 1 821 95.6652)" fill="#1562AF" fill-opacity="0.14"/>
<rect width="53" height="1.36017" rx="0.680085" transform="matrix(-1 0 0 1 511 29.4703)" fill="#1562AF" fill-opacity="0.34"/>
<rect width="53" height="1.36017" rx="0.680085" transform="matrix(-1 0 0 1 511 100.653)" fill="#1562AF" fill-opacity="0.14"/>
<rect width="126" height="1.36017" rx="0.680085" transform="matrix(-1 0 0 1 499 37.4703)" fill="#1562AF" fill-opacity="0.14"/>
<rect width="126" height="1.36017" rx="0.680085" transform="matrix(-1 0 0 1 643 100.653)" fill="#1562AF" fill-opacity="0.14"/>
<rect width="27" height="1.36017" rx="0.680085" transform="matrix(-1 0 0 1 532 37.4703)" fill="#1562AF" fill-opacity="0.34"/>
<rect width="53" height="1.36017" rx="0.680085" transform="matrix(-1 0 0 1 62 25)" fill="#1562AF" fill-opacity="0.34"/>
<rect width="27" height="1.36017" rx="0.680085" transform="matrix(-1 0 0 1 29 33)" fill="#1562AF" fill-opacity="0.34"/>
<path d="M15 49.5C15 49.2239 14.7761 49 14.5 49H1.5C1.22386 49 1 49.2239 1 49.5V49.5C1 49.7761 1.22386 50 1.5 50H14.5C14.7761 50 15 49.7761 15 49.5V49.5Z" fill="#1562AF" fill-opacity="0.34"/>
<rect width="45" height="1.36017" rx="0.680085" transform="matrix(-1 0 0 1 727 29.4703)" fill="#1562AF" fill-opacity="0.14"/>
<rect width="78" height="1.36017" rx="0.680085" transform="matrix(-1 0 0 1 727 100.653)" fill="#1562AF" fill-opacity="0.34"/>
<rect width="60" height="1.36017" rx="0.680085" transform="matrix(-1 0 0 1 793 29.4703)" fill="#1562AF" fill-opacity="0.14"/>
<rect width="88" height="1.36017" rx="0.680085" transform="matrix(-1 0 0 1 821 100.653)" fill="#1562AF" fill-opacity="0.14"/>
<rect width="22" height="1.36017" rx="0.680085" transform="matrix(-1 0 0 1 821 29.4703)" fill="#1562AF" fill-opacity="0.14"/>
<rect width="64" height="1.36017" rx="0.680085" transform="matrix(-1 0 0 1 821 14.4576)" fill="#1562AF" fill-opacity="0.34"/>
<rect width="64" height="1.36017" rx="0.680085" transform="matrix(-1 0 0 1 507 14.4576)" fill="#1562AF" fill-opacity="0.34"/>
<rect width="64" height="1.36017" rx="0.680085" transform="matrix(-1 0 0 1 821 105.64)" fill="#1562AF" fill-opacity="0.34"/>
<rect width="86" height="1.36017" rx="0.680085" transform="matrix(-1 0 0 1 751 34.4576)" fill="#1562AF" fill-opacity="0.14"/>
<rect width="154" height="1.36017" rx="0.680085" transform="matrix(-1 0 0 1 751 105.64)" fill="#1562AF" fill-opacity="0.14"/>
</g>
</svg>
