<svg width="69" height="66" viewBox="0 0 69 66" fill="none" xmlns="http://www.w3.org/2000/svg">
<path d="M56.9543 27.5V13.75C56.9543 12.2913 56.3542 10.8924 55.2861 9.86091C54.218 8.82946 52.7694 8.25 51.2589 8.25H14.2386C12.7281 8.25 11.2795 8.82946 10.2114 9.86091C9.14326 10.8924 8.54321 12.2913 8.54321 13.75V52.25C8.54321 53.7087 9.14326 55.1076 10.2114 56.1391C11.2795 57.1705 12.7281 57.75 14.2386 57.75H28.4772" stroke="#1F2937" stroke-linecap="round" stroke-linejoin="round"/>
<path d="M26.3416 42.6445H28.4768" stroke="#1F2937" stroke-width="0.5" stroke-linecap="round" stroke-linejoin="round"/>
<path d="M26.3416 31.6445H39.8682" stroke="#1F2937" stroke-width="0.5" stroke-linecap="round" stroke-linejoin="round"/>
<path d="M26.3416 20.9888H45.5636" stroke="#1F2937" stroke-width="0.5" stroke-linecap="round" stroke-linejoin="round"/>
<circle cx="17.4347" cy="41.1464" r="2.0922" fill="#1F2937"/>
<circle cx="17.4347" cy="29.9877" r="2.0922" fill="#1F2937"/>
<circle cx="17.4347" cy="20.2248" r="3.48699" fill="#1F2937"/>
<circle cx="17.4347" cy="31.3825" r="3.48699" fill="#1F2937"/>
<circle cx="17.4347" cy="42.5412" r="3.48699" fill="#1F2937"/>
<path d="M49.8352 35.7495C52.3697 35.7495 54.8473 36.4753 56.9547 37.8351C59.062 39.1949 60.7045 41.1276 61.6744 43.3888C62.6444 45.65 62.8981 48.1382 62.4037 50.5388C61.9092 52.9393 60.6887 55.1443 58.8966 56.875C57.1044 58.6056 54.821 59.7842 52.3352 60.2617C49.8494 60.7392 47.2728 60.4942 44.9312 59.5575C42.5897 58.6209 40.5883 57.0348 39.1802 54.9997C37.7721 52.9646 37.0205 50.5721 37.0205 48.1245C37.0205 44.8425 38.3706 41.6948 40.7738 39.3741C43.1771 37.0533 46.4365 35.7495 49.8352 35.7495" fill="#2ECC71"/>
<path d="M49.8352 35.7495C52.3697 35.7495 54.8473 36.4753 56.9547 37.8351C59.062 39.1949 60.7045 41.1276 61.6744 43.3888C62.6444 45.65 62.8981 48.1382 62.4037 50.5388C61.9092 52.9393 60.6887 55.1443 58.8966 56.875C57.1044 58.6056 54.821 59.7842 52.3352 60.2617C49.8494 60.7392 47.2728 60.4942 44.9312 59.5575C42.5897 58.6209 40.5883 57.0348 39.1802 54.9997C37.7721 52.9646 37.0205 50.5721 37.0205 48.1245C37.0205 44.8425 38.3706 41.6948 40.7738 39.3741C43.1771 37.0533 46.4365 35.7495 49.8352 35.7495" stroke="#2ECC71" stroke-linecap="round" stroke-linejoin="round"/>
<path d="M54.2661 45.9883L48.7302 51.3343L45.4041 48.125" stroke="white" stroke-linecap="round" stroke-linejoin="round"/>
</svg>
