<svg width="69" height="66" viewBox="0 0 69 66" fill="none" xmlns="http://www.w3.org/2000/svg">
<path d="M56.9543 27.5V13.75C56.9543 12.2913 56.3542 10.8924 55.2861 9.86091C54.218 8.82946 52.7694 8.25 51.2589 8.25H14.2386C12.7281 8.25 11.2795 8.82946 10.2114 9.86091C9.14326 10.8924 8.54321 12.2913 8.54321 13.75V52.25C8.54321 53.7087 9.14326 55.1076 10.2114 56.1391C11.2795 57.1705 12.7281 57.75 14.2386 57.75H28.4772" stroke="#1F2937" stroke-linecap="round" stroke-linejoin="round"/>
<path d="M26.3418 42.645H28.4771" stroke="#1F2937" stroke-width="0.5" stroke-linecap="round" stroke-linejoin="round"/>
<path d="M26.3418 31.6445H39.8684" stroke="#1F2937" stroke-width="0.5" stroke-linecap="round" stroke-linejoin="round"/>
<path d="M26.3418 20.9888H45.5638" stroke="#1F2937" stroke-width="0.5" stroke-linecap="round" stroke-linejoin="round"/>
<circle cx="17.4347" cy="41.1464" r="2.0922" fill="#1F2937"/>
<circle cx="17.4347" cy="29.9877" r="2.0922" fill="#1F2937"/>
<circle cx="17.4347" cy="20.2248" r="3.48699" fill="#1F2937"/>
<circle cx="17.4347" cy="31.3825" r="3.48699" fill="#1F2937"/>
<circle cx="17.4347" cy="42.5412" r="3.48699" fill="#1F2937"/>
<path d="M49.8147 36C52.3492 36 54.8268 36.7258 56.9342 38.0856C59.0415 39.4453 60.684 41.3781 61.6539 43.6393C62.6238 45.9005 62.8776 48.3887 62.3832 50.7892C61.8887 53.1898 60.6682 55.3948 58.8761 57.1254C57.0839 58.8561 54.8005 60.0347 52.3147 60.5122C49.8289 60.9897 47.2523 60.7446 44.9107 59.808C42.5691 58.8714 40.5678 57.2852 39.1597 55.2502C37.7516 53.2151 37 50.8225 37 48.375C37 45.0929 38.3501 41.9453 40.7533 39.6246C43.1566 37.3038 46.416 36 49.8147 36" fill="#0078BE"/>
<path d="M49.8147 36C52.3492 36 54.8268 36.7258 56.9342 38.0856C59.0415 39.4453 60.684 41.3781 61.6539 43.6393C62.6238 45.9005 62.8776 48.3887 62.3832 50.7892C61.8887 53.1898 60.6682 55.3948 58.8761 57.1254C57.0839 58.8561 54.8005 60.0347 52.3147 60.5122C49.8289 60.9897 47.2523 60.7446 44.9107 59.808C42.5691 58.8714 40.5678 57.2852 39.1597 55.2502C37.7516 53.2151 37 50.8225 37 48.375C37 45.0929 38.3501 41.9453 40.7533 39.6246C43.1566 37.3038 46.416 36 49.8147 36" stroke="#0078BE" stroke-linecap="round" stroke-linejoin="round"/>
<path d="M46.3125 44.25C46.3125 44.1091 46.3685 43.974 46.4681 43.8743C46.5677 43.7747 46.7029 43.7188 46.8438 43.7188H55.3438C55.4846 43.7188 55.6198 43.7747 55.7194 43.8743C55.819 43.974 55.875 44.1091 55.875 44.25C55.875 44.3909 55.819 44.526 55.7194 44.6257C55.6198 44.7253 55.4846 44.7812 55.3438 44.7812H46.8438C46.7029 44.7812 46.5677 44.7253 46.4681 44.6257C46.3685 44.526 46.3125 44.3909 46.3125 44.25ZM55.3438 47.9688H46.8438C46.7029 47.9688 46.5677 48.0247 46.4681 48.1243C46.3685 48.224 46.3125 48.3591 46.3125 48.5C46.3125 48.6409 46.3685 48.776 46.4681 48.8757C46.5677 48.9753 46.7029 49.0312 46.8438 49.0312H55.3438C55.4846 49.0312 55.6198 48.9753 55.7194 48.8757C55.819 48.776 55.875 48.6409 55.875 48.5C55.875 48.3591 55.819 48.224 55.7194 48.1243C55.6198 48.0247 55.4846 47.9688 55.3438 47.9688ZM55.3438 52.2188H46.8438C46.7029 52.2188 46.5677 52.2747 46.4681 52.3743C46.3685 52.474 46.3125 52.6091 46.3125 52.75C46.3125 52.8909 46.3685 53.026 46.4681 53.1257C46.5677 53.2253 46.7029 53.2812 46.8438 53.2812H55.3438C55.4846 53.2812 55.6198 53.2253 55.7194 53.1257C55.819 53.026 55.875 52.8909 55.875 52.75C55.875 52.6091 55.819 52.474 55.7194 52.3743C55.6198 52.2747 55.4846 52.2188 55.3438 52.2188ZM43.9219 43.4531C43.7643 43.4531 43.6102 43.4999 43.4792 43.5874C43.3481 43.675 43.246 43.7994 43.1857 43.945C43.1253 44.0907 43.1096 44.2509 43.1403 44.4055C43.1711 44.56 43.247 44.702 43.3584 44.8135C43.4698 44.9249 43.6118 45.0008 43.7664 45.0316C43.921 45.0623 44.0812 45.0465 44.2268 44.9862C44.3724 44.9259 44.4969 44.8238 44.5845 44.6927C44.672 44.5617 44.7188 44.4076 44.7188 44.25C44.7188 44.0387 44.6348 43.836 44.4854 43.6865C44.3359 43.5371 44.1332 43.4531 43.9219 43.4531ZM43.9219 47.7031C43.7643 47.7031 43.6102 47.7499 43.4792 47.8374C43.3481 47.925 43.246 48.0494 43.1857 48.195C43.1253 48.3407 43.1096 48.5009 43.1403 48.6555C43.1711 48.81 43.247 48.952 43.3584 49.0635C43.4698 49.1749 43.6118 49.2508 43.7664 49.2816C43.921 49.3123 44.0812 49.2965 44.2268 49.2362C44.3724 49.1759 44.4969 49.0738 44.5845 48.9427C44.672 48.8117 44.7188 48.6576 44.7188 48.5C44.7188 48.2887 44.6348 48.086 44.4854 47.9365C44.3359 47.7871 44.1332 47.7031 43.9219 47.7031ZM43.9219 51.9531C43.7643 51.9531 43.6102 51.9999 43.4792 52.0874C43.3481 52.175 43.246 52.2994 43.1857 52.445C43.1253 52.5907 43.1096 52.7509 43.1403 52.9055C43.1711 53.06 43.247 53.202 43.3584 53.3135C43.4698 53.4249 43.6118 53.5008 43.7664 53.5316C43.921 53.5623 44.0812 53.5465 44.2268 53.4862C44.3724 53.4259 44.4969 53.3238 44.5845 53.1927C44.672 53.0617 44.7188 52.9076 44.7188 52.75C44.7188 52.5387 44.6348 52.336 44.4854 52.1865C44.3359 52.0371 44.1332 51.9531 43.9219 51.9531Z" fill="white"/>
</svg>
