<svg width="69" height="66" viewBox="0 0 69 66" fill="none" xmlns="http://www.w3.org/2000/svg">
<path d="M56.9543 27.5V13.75C56.9543 12.2913 56.3542 10.8924 55.2861 9.86091C54.218 8.82946 52.7694 8.25 51.2589 8.25H14.2386C12.7281 8.25 11.2795 8.82946 10.2114 9.86091C9.14326 10.8924 8.54321 12.2913 8.54321 13.75V52.25C8.54321 53.7087 9.14326 55.1076 10.2114 56.1391C11.2795 57.1705 12.7281 57.75 14.2386 57.75H28.4772" stroke="#1F2937" stroke-linecap="round" stroke-linejoin="round"/>
<path d="M26.3416 42.6445H28.4768" stroke="#1F2937" stroke-width="0.5" stroke-linecap="round" stroke-linejoin="round"/>
<path d="M26.3416 31.6445H39.8682" stroke="#1F2937" stroke-width="0.5" stroke-linecap="round" stroke-linejoin="round"/>
<path d="M26.3416 20.9888H45.5636" stroke="#1F2937" stroke-width="0.5" stroke-linecap="round" stroke-linejoin="round"/>
<circle cx="17.4347" cy="41.1464" r="2.0922" fill="#1F2937"/>
<circle cx="17.4347" cy="29.9877" r="2.0922" fill="#1F2937"/>
<circle cx="17.4347" cy="20.2248" r="3.48699" fill="#1F2937"/>
<circle cx="17.4347" cy="31.3825" r="3.48699" fill="#1F2937"/>
<circle cx="17.4347" cy="42.5412" r="3.48699" fill="#1F2937"/>
<path d="M49.8147 36C52.3492 36 54.8268 36.7258 56.9342 38.0856C59.0415 39.4453 60.684 41.3781 61.6539 43.6393C62.6238 45.9005 62.8776 48.3887 62.3832 50.7892C61.8887 53.1898 60.6682 55.3948 58.8761 57.1254C57.0839 58.8561 54.8005 60.0347 52.3147 60.5122C49.8289 60.9897 47.2523 60.7446 44.9107 59.808C42.5691 58.8714 40.5678 57.2852 39.1597 55.2502C37.7516 53.2151 37 50.8225 37 48.375C37 45.0929 38.3501 41.9453 40.7533 39.6246C43.1566 37.3038 46.416 36 49.8147 36" fill="#2ECC71"/>
<path d="M49.8147 36C52.3492 36 54.8268 36.7258 56.9342 38.0856C59.0415 39.4453 60.684 41.3781 61.6539 43.6393C62.6238 45.9005 62.8776 48.3887 62.3832 50.7892C61.8887 53.1898 60.6682 55.3948 58.8761 57.1254C57.0839 58.8561 54.8005 60.0347 52.3147 60.5122C49.8289 60.9897 47.2523 60.7446 44.9107 59.808C42.5691 58.8714 40.5678 57.2852 39.1597 55.2502C37.7516 53.2151 37 50.8225 37 48.375C37 45.0929 38.3501 41.9453 40.7533 39.6246C43.1566 37.3038 46.416 36 49.8147 36" stroke="#2ECC71" stroke-linecap="round" stroke-linejoin="round"/>
<path d="M55.436 48.0828L51.404 46.5984L49.9196 42.5633C49.8317 42.3245 49.6726 42.1184 49.4639 41.9728C49.2552 41.8272 49.0069 41.7492 48.7524 41.7492C48.4979 41.7492 48.2496 41.8272 48.0409 41.9728C47.8321 42.1184 47.6731 42.3245 47.5852 42.5633L46.0993 46.5938L42.0641 48.0781C41.8253 48.166 41.6192 48.3251 41.4736 48.5338C41.3281 48.7425 41.25 48.9908 41.25 49.2453C41.25 49.4998 41.3281 49.7481 41.4736 49.9568C41.6192 50.1656 41.8253 50.3246 42.0641 50.4125L46.0938 51.9062L47.5782 55.9391C47.6661 56.1779 47.8251 56.384 48.0338 56.5295C48.2425 56.6751 48.4909 56.7532 48.7454 56.7532C48.9998 56.7532 49.2482 56.6751 49.4569 56.5295C49.6656 56.384 49.8246 56.1779 49.9126 55.9391L51.3969 51.907L55.4321 50.4227C55.6709 50.3348 55.877 50.1757 56.0226 49.967C56.1681 49.7583 56.2462 49.5099 56.2462 49.2555C56.2462 49.001 56.1681 48.7527 56.0226 48.5439C55.877 48.3352 55.6709 48.1762 55.4321 48.0883L55.436 48.0828ZM50.968 50.7344C50.7991 50.7964 50.6457 50.8944 50.5185 51.0216C50.3913 51.1488 50.2933 51.3022 50.2313 51.4711L48.7469 55.4914L47.2657 51.468C47.2036 51.3 47.1059 51.1474 46.9793 51.0208C46.8527 50.8941 46.7001 50.7964 46.5321 50.7344L42.5118 49.25L46.5321 47.7656C46.7001 47.7036 46.8527 47.6059 46.9793 47.4792C47.1059 47.3526 47.2036 47.2 47.2657 47.032L48.7501 43.0117L50.2344 47.032C50.2964 47.2009 50.3944 47.3543 50.5216 47.4815C50.6489 47.6088 50.8022 47.7068 50.9711 47.7688L54.9915 49.2531L50.968 50.7344ZM51.2501 41.125C51.2501 40.9592 51.3159 40.8003 51.4331 40.6831C51.5503 40.5658 51.7093 40.5 51.8751 40.5H53.1251V39.25C53.1251 39.0842 53.1909 38.9253 53.3081 38.8081C53.4253 38.6908 53.5843 38.625 53.7501 38.625C53.9158 38.625 54.0748 38.6908 54.192 38.8081C54.3092 38.9253 54.3751 39.0842 54.3751 39.25V40.5H55.6251C55.7908 40.5 55.9498 40.5658 56.067 40.6831C56.1842 40.8003 56.2501 40.9592 56.2501 41.125C56.2501 41.2908 56.1842 41.4497 56.067 41.5669C55.9498 41.6842 55.7908 41.75 55.6251 41.75H54.3751V43C54.3751 43.1658 54.3092 43.3247 54.192 43.4419C54.0748 43.5592 53.9158 43.625 53.7501 43.625C53.5843 43.625 53.4253 43.5592 53.3081 43.4419C53.1909 43.3247 53.1251 43.1658 53.1251 43V41.75H51.8751C51.7093 41.75 51.5503 41.6842 51.4331 41.5669C51.3159 41.4497 51.2501 41.2908 51.2501 41.125ZM59.3751 44.875C59.3751 45.0408 59.3092 45.1997 59.192 45.3169C59.0748 45.4342 58.9158 45.5 58.7501 45.5H58.1251V46.125C58.1251 46.2908 58.0592 46.4497 57.942 46.5669C57.8248 46.6842 57.6658 46.75 57.5001 46.75C57.3343 46.75 57.1753 46.6842 57.0581 46.5669C56.9409 46.4497 56.8751 46.2908 56.8751 46.125V45.5H56.2501C56.0843 45.5 55.9253 45.4342 55.8081 45.3169C55.6909 45.1997 55.6251 45.0408 55.6251 44.875C55.6251 44.7092 55.6909 44.5503 55.8081 44.4331C55.9253 44.3158 56.0843 44.25 56.2501 44.25H56.8751V43.625C56.8751 43.4592 56.9409 43.3003 57.0581 43.1831C57.1753 43.0658 57.3343 43 57.5001 43C57.6658 43 57.8248 43.0658 57.942 43.1831C58.0592 43.3003 58.1251 43.4592 58.1251 43.625V44.25H58.7501C58.9158 44.25 59.0748 44.3158 59.192 44.4331C59.3092 44.5503 59.3751 44.7092 59.3751 44.875Z" fill="white"/>
</svg>
