<svg width="69" height="66" viewBox="0 0 69 66" fill="none" xmlns="http://www.w3.org/2000/svg">
<path d="M56.9543 27.5V13.75C56.9543 12.2913 56.3542 10.8924 55.2861 9.86091C54.218 8.82946 52.7694 8.25 51.2589 8.25H14.2386C12.7281 8.25 11.2795 8.82946 10.2114 9.86091C9.14326 10.8924 8.54321 12.2913 8.54321 13.75V52.25C8.54321 53.7087 9.14326 55.1076 10.2114 56.1391C11.2795 57.1705 12.7281 57.75 14.2386 57.75H28.4772" stroke="#1F2937" stroke-linecap="round" stroke-linejoin="round"/>
<path d="M26.3416 42.6445H28.4768" stroke="#1F2937" stroke-width="0.5" stroke-linecap="round" stroke-linejoin="round"/>
<path d="M26.3416 31.6445H39.8682" stroke="#1F2937" stroke-width="0.5" stroke-linecap="round" stroke-linejoin="round"/>
<path d="M26.3416 20.9888H45.5636" stroke="#1F2937" stroke-width="0.5" stroke-linecap="round" stroke-linejoin="round"/>
<circle cx="17.4347" cy="41.1464" r="2.0922" fill="#1F2937"/>
<circle cx="17.4347" cy="29.9877" r="2.0922" fill="#1F2937"/>
<circle cx="17.4347" cy="20.2248" r="3.48699" fill="#1F2937"/>
<circle cx="17.4347" cy="31.3825" r="3.48699" fill="#1F2937"/>
<circle cx="17.4347" cy="42.5412" r="3.48699" fill="#1F2937"/>
<path d="M54.2661 45.9883L48.7302 51.3343L45.4041 48.125" stroke="white" stroke-linecap="round" stroke-linejoin="round"/>
<path d="M49.123 35.7495C51.6576 35.7495 54.1351 36.4753 56.2425 37.8351C58.3499 39.1949 59.9924 41.1276 60.9623 43.3888C61.9322 45.65 62.186 48.1382 61.6915 50.5388C61.1971 52.9393 59.9766 55.1443 58.1844 56.875C56.3922 58.6056 54.1089 59.7842 51.6231 60.2617C49.1373 60.7392 46.5607 60.4942 44.2191 59.5575C41.8775 58.6209 39.8761 57.0348 38.468 54.9997C37.0599 52.9646 36.3083 50.5721 36.3083 48.1245C36.3083 44.8425 37.6585 41.6948 40.0617 39.3741C42.4649 37.0533 45.7244 35.7495 49.123 35.7495" fill="#F84F6B"/>
<path d="M49.123 35.7495C51.6576 35.7495 54.1351 36.4753 56.2425 37.8351C58.3499 39.1949 59.9924 41.1276 60.9623 43.3888C61.9322 45.65 62.186 48.1382 61.6915 50.5388C61.1971 52.9393 59.9766 55.1443 58.1844 56.875C56.3922 58.6056 54.1089 59.7842 51.6231 60.2617C49.1373 60.7392 46.5607 60.4942 44.2191 59.5575C41.8775 58.6209 39.8761 57.0348 38.468 54.9997C37.0599 52.9646 36.3083 50.5721 36.3083 48.1245C36.3083 44.8425 37.6585 41.6948 40.0617 39.3741C42.4649 37.0533 45.7244 35.7495 49.123 35.7495" stroke="#F84F6B" stroke-linecap="round" stroke-linejoin="round"/>
<path d="M49.4885 47.0789V40.2881" stroke="white" stroke-width="2" stroke-linecap="round" stroke-linejoin="round"/>
<path d="M49.4891 52.4287C49.392 52.4287 49.2989 52.4642 49.2303 52.5273C49.1616 52.5905 49.123 52.6762 49.123 52.7655C49.123 52.8548 49.1616 52.9405 49.2303 53.0036C49.2989 53.0668 49.392 53.1023 49.4891 53.1023C49.5862 53.1023 49.6793 53.0668 49.748 53.0036C49.8167 52.9405 49.8552 52.8548 49.8552 52.7655C49.8552 52.6762 49.8167 52.5905 49.748 52.5273C49.6793 52.4642 49.5862 52.4287 49.4891 52.4287" stroke="white" stroke-width="2" stroke-linecap="round" stroke-linejoin="round"/>
</svg>
