<svg width="69" height="66" viewBox="0 0 69 66" fill="none" xmlns="http://www.w3.org/2000/svg">
<path d="M56.9543 27.5V13.75C56.9543 12.2913 56.3542 10.8924 55.2861 9.86091C54.218 8.82946 52.7694 8.25 51.2589 8.25H14.2386C12.7281 8.25 11.2795 8.82946 10.2114 9.86091C9.14326 10.8924 8.54321 12.2913 8.54321 13.75V52.25C8.54321 53.7087 9.14326 55.1076 10.2114 56.1391C11.2795 57.1705 12.7281 57.75 14.2386 57.75H28.4772" stroke="#1F2937" stroke-linecap="round" stroke-linejoin="round"/>
<path d="M26.3416 42.6445H28.4768" stroke="#1F2937" stroke-width="0.5" stroke-linecap="round" stroke-linejoin="round"/>
<path d="M26.3416 31.6445H39.8682" stroke="#1F2937" stroke-width="0.5" stroke-linecap="round" stroke-linejoin="round"/>
<path d="M26.3416 20.9888H45.5636" stroke="#1F2937" stroke-width="0.5" stroke-linecap="round" stroke-linejoin="round"/>
<circle cx="17.4347" cy="41.1464" r="2.0922" fill="#1F2937"/>
<circle cx="17.4347" cy="29.9877" r="2.0922" fill="#1F2937"/>
<circle cx="17.4347" cy="20.2248" r="3.48699" fill="#1F2937"/>
<circle cx="17.4347" cy="31.3825" r="3.48699" fill="#1F2937"/>
<circle cx="17.4347" cy="42.5412" r="3.48699" fill="#1F2937"/>
<path d="M54.2661 45.9883L48.7302 51.3343L45.4041 48.125" stroke="white" stroke-linecap="round" stroke-linejoin="round"/>
<path d="M49.8352 35.7495C52.3697 35.7495 54.8473 36.4753 56.9547 37.8351C59.062 39.1949 60.7045 41.1276 61.6744 43.3888C62.6444 45.65 62.8981 48.1382 62.4037 50.5388C61.9092 52.9393 60.6887 55.1443 58.8966 56.875C57.1044 58.6056 54.821 59.7842 52.3352 60.2617C49.8494 60.7392 47.2728 60.4942 44.9312 59.5575C42.5897 58.6209 40.5883 57.0348 39.1802 54.9997C37.7721 52.9646 37.0205 50.5721 37.0205 48.1245C37.0205 44.8425 38.3706 41.6948 40.7738 39.3741C43.1771 37.0533 46.4365 35.7495 49.8352 35.7495" fill="#FFA807"/>
<path d="M49.8352 35.7495C52.3697 35.7495 54.8473 36.4753 56.9547 37.8351C59.062 39.1949 60.7045 41.1276 61.6744 43.3888C62.6444 45.65 62.8981 48.1382 62.4037 50.5388C61.9092 52.9393 60.6887 55.1443 58.8966 56.875C57.1044 58.6056 54.821 59.7842 52.3352 60.2617C49.8494 60.7392 47.2728 60.4942 44.9312 59.5575C42.5897 58.6209 40.5883 57.0348 39.1802 54.9997C37.7721 52.9646 37.0205 50.5721 37.0205 48.1245C37.0205 44.8425 38.3706 41.6948 40.7738 39.3741C43.1771 37.0533 46.4365 35.7495 49.8352 35.7495" stroke="#FFA807" stroke-linecap="round" stroke-linejoin="round"/>
<path fill-rule="evenodd" clip-rule="evenodd" d="M45.1991 40.9169C45.4216 40.7012 45.7234 40.5801 46.0381 40.5801H54.3439C54.6586 40.5801 54.9604 40.7012 55.1829 40.9169C55.4055 41.1326 55.5305 41.4251 55.5305 41.7301V44.2925C55.5293 44.4697 55.4862 44.6444 55.4044 44.8029C55.3226 44.9614 55.2044 45.0996 55.0588 45.2068L50.549 48.5139C50.338 48.6686 50.0467 48.6692 49.8351 48.5153L45.3233 45.2356C45.1776 45.1284 45.0594 44.9902 44.9776 44.8316C44.8958 44.6731 44.8527 44.4985 44.8516 44.3212L44.8516 44.3177L44.8516 41.7301C44.8516 41.4251 44.9766 41.1326 45.1991 40.9169ZM54.3439 41.7301H46.0381V44.3145L46.0389 44.3173L46.0407 44.3196L50.1895 47.3354L54.341 44.2911V44.2911L54.3432 44.2886L54.3439 44.2858V41.7301Z" fill="white"/>
<path fill-rule="evenodd" clip-rule="evenodd" d="M49.8351 47.5953C50.0467 47.4414 50.338 47.442 50.549 47.5968L55.0588 50.9038C55.2044 51.011 55.3226 51.1492 55.4044 51.3078C55.4862 51.4663 55.5293 51.6409 55.5305 51.8181L55.5305 51.8217L55.5305 54.3805C55.5305 54.6855 55.4055 54.978 55.1829 55.1937C54.9604 55.4094 54.6586 55.5306 54.3439 55.5306H46.0381C45.7234 55.5306 45.4216 55.4094 45.1991 55.1937C44.9766 54.978 44.8516 54.6855 44.8516 54.3805V51.7894C44.8527 51.6122 44.8958 51.4375 44.9776 51.279C45.0594 51.1205 45.1777 50.9823 45.3233 50.875L45.3262 50.8729L49.8351 47.5953ZM46.0381 51.7961L46.0389 51.7933L46.0407 51.791L50.1895 48.7752L54.341 51.8196V51.8196L54.3432 51.8221L54.3436 51.823L54.3439 51.8249V54.3805H46.0381V51.7961Z" fill="white"/>
</svg>
