<svg width="27" height="28" viewBox="0 0 27 28" fill="none" xmlns="http://www.w3.org/2000/svg">
<path d="M22.4729 11.1049V3.52623C22.4729 2.85623 22.2068 2.21367 21.733 1.73991C21.2593 1.26616 20.6167 1 19.9467 1H3.52623C2.85623 1 2.21367 1.26616 1.73991 1.73991C1.26616 2.21367 1 2.85623 1 3.52623V21.2098C1 21.8798 1.26616 22.5224 1.73991 22.9961C2.21367 23.4699 2.85623 23.736 3.52623 23.736H9.84179" stroke="#1F2937" stroke-linecap="round" stroke-linejoin="round"/>
<path d="M8.89447 16.1572H9.84181" stroke="#1F2937" stroke-linecap="round" stroke-linejoin="round"/>
<path d="M8.89447 11.105H13.6311" stroke="#1F2937" stroke-linecap="round" stroke-linejoin="round"/>
<path d="M8.89447 6.21045H17.4205" stroke="#1F2937" stroke-linecap="round" stroke-linejoin="round"/>
<path d="M4.94723 16.3153C4.97845 16.3153 5.00898 16.306 5.03494 16.2887C5.06091 16.2713 5.08115 16.2467 5.0931 16.2178C5.10505 16.189 5.10817 16.1572 5.10208 16.1266C5.09599 16.096 5.08095 16.0678 5.05887 16.0458C5.03679 16.0237 5.00866 16.0086 4.97803 16.0025C4.9474 15.9965 4.91566 15.9996 4.8868 16.0115C4.85795 16.0235 4.8333 16.0437 4.81595 16.0697C4.7986 16.0956 4.78934 16.1262 4.78934 16.1574C4.78934 16.1993 4.80597 16.2394 4.83558 16.269C4.86519 16.2987 4.90535 16.3153 4.94723 16.3153Z" stroke="#1F2937" stroke-linecap="round" stroke-linejoin="round"/>
<path d="M4.94723 11.2626C4.97845 11.2626 5.00898 11.2533 5.03494 11.2359C5.06091 11.2186 5.08115 11.1939 5.0931 11.1651C5.10505 11.1362 5.10817 11.1045 5.10208 11.0739C5.09599 11.0432 5.08095 11.0151 5.05887 10.993C5.03679 10.9709 5.00866 10.9559 4.97803 10.9498C4.9474 10.9437 4.91566 10.9468 4.8868 10.9588C4.85795 10.9707 4.8333 10.991 4.81595 11.0169C4.7986 11.0429 4.78934 11.0734 4.78934 11.1047C4.78934 11.1465 4.80597 11.1867 4.83558 11.2163C4.86519 11.2459 4.90535 11.2626 4.94723 11.2626Z" stroke="#1F2937" stroke-linecap="round" stroke-linejoin="round"/>
<path d="M4.94723 6.36802C4.97845 6.36802 5.00898 6.35876 5.03494 6.34142C5.06091 6.32407 5.08115 6.29941 5.0931 6.27056C5.10505 6.24171 5.10817 6.20996 5.10208 6.17933C5.09599 6.1487 5.08095 6.12057 5.05887 6.09849C5.03679 6.07641 5.00866 6.06137 4.97803 6.05528C4.9474 6.04919 4.91566 6.05231 4.8868 6.06426C4.85795 6.07622 4.8333 6.09645 4.81595 6.12242C4.7986 6.14838 4.78934 6.17891 4.78934 6.21014C4.78934 6.25201 4.80597 6.29217 4.83558 6.32178C4.86519 6.35139 4.90535 6.36802 4.94723 6.36802Z" stroke="#1F2937" stroke-linecap="round" stroke-linejoin="round"/>
<path d="M26 19.2025C26 22.809 23.4402 26.1812 20 27C16.5598 26.1812 14 22.809 14 19.2025V16.3696C14 16.0543 14.0887 15.746 14.2547 15.4842C14.4207 15.2224 14.6566 15.0189 14.9323 14.8995L18.6823 13.2746C19.5267 12.9085 20.4733 12.9085 21.3177 13.2746L25.0677 14.8995C25.3434 15.0189 25.5793 15.2224 25.7453 15.4842C25.9113 15.746 26 16.0543 26 16.3696V19.2025Z" fill="#9BCFEE" stroke="#1F2937" stroke-linecap="round" stroke-linejoin="round"/>
<path d="M24.2418 19.4304C24.2418 22.0064 22.4837 24.4151 20.1209 25C17.7581 24.4151 16 22.0064 16 19.4304V17.4069C16 17.1816 16.0609 16.9615 16.1749 16.7745C16.289 16.5875 16.451 16.4421 16.6403 16.3568L19.2158 15.1961C19.7958 14.9346 20.4459 14.9346 21.0259 15.1961L23.6015 16.3568C23.7908 16.4421 23.9528 16.5875 24.0668 16.7745C24.1808 16.9615 24.2417 17.1816 24.2418 17.4069V19.4304Z" fill="#D2F2F1" stroke="#1F2937" stroke-width="0.2" stroke-linecap="round" stroke-linejoin="round"/>
<path d="M22.8437 18.7104L19.5625 21.6887L17.5938 19.9018" stroke="#1F2937" stroke-linecap="round" stroke-linejoin="round"/>
</svg>
