<svg width="148" height="139" viewBox="0 0 148 139" fill="none" xmlns="http://www.w3.org/2000/svg">
<path opacity="0.25" d="M147.5 69.5C147.5 107.579 114.623 138.5 74 138.5C33.3771 138.5 0.5 107.579 0.5 69.5C0.5 31.4214 33.3771 0.5 74 0.5C114.623 0.5 147.5 31.4214 147.5 69.5Z" fill="#0078BE" stroke="white"/>
<path opacity="0.25" d="M130.5 69.5C130.5 99.3025 105.225 123.5 74 123.5C42.7745 123.5 17.5 99.3025 17.5 69.5C17.5 39.6975 42.7745 15.5 74 15.5C105.225 15.5 130.5 39.6975 130.5 69.5Z" fill="#0078BE" stroke="white"/>
<circle opacity="0.25" cx="74.5" cy="69.5" r="30" fill="#0078BE" stroke="white"/>
<path d="M74.5 100C66.4109 100 58.6531 96.7866 52.9332 91.0668C47.2134 85.3469 44 77.5891 44 69.5C44 61.4109 47.2134 53.6531 52.9332 47.9332C58.6531 42.2134 66.4109 39 74.5 39C82.5891 39 90.3469 42.2134 96.0668 47.9332C101.787 53.6531 105 61.4109 105 69.5C105 77.5891 101.787 85.3469 96.0668 91.0668C90.3469 96.7866 82.5891 100 74.5 100V100Z" stroke="#0078BE" stroke-linecap="round" stroke-linejoin="round"/>
<path d="M74.5002 86.4444V69.5H71.1113" stroke="#0078BE" stroke-width="2" stroke-linecap="round" stroke-linejoin="round"/>
<path d="M73.6495 55.9444C73.4821 55.9451 73.3186 55.9954 73.1797 56.0889C73.0409 56.1824 72.9328 56.3149 72.8692 56.4698C72.8056 56.6247 72.7893 56.7949 72.8224 56.959C72.8554 57.1231 72.9364 57.2738 73.055 57.3919C73.1736 57.5101 73.3246 57.5904 73.4888 57.6229C73.6531 57.6553 73.8233 57.6383 73.9779 57.5741C74.1325 57.5099 74.2646 57.4013 74.3576 57.262C74.4505 57.1228 74.5001 56.9591 74.5001 56.7917C74.5001 56.6801 74.4781 56.5697 74.4353 56.4667C74.3925 56.3637 74.3298 56.2701 74.2508 56.1914C74.1717 56.1127 74.0779 56.0503 73.9748 56.008C73.8716 55.9656 73.761 55.944 73.6495 55.9444Z" stroke="#0078BE" stroke-width="2" stroke-linecap="round" stroke-linejoin="round"/>
</svg>
