<svg width="126" height="155" viewBox="0 0 126 155" fill="none" xmlns="http://www.w3.org/2000/svg">
<g opacity="0.25">
<path d="M85.4624 23.2464L67.8672 5.65121C66.7142 4.49385 65.344 3.57555 63.8353 2.94898C62.3265 2.32242 60.7089 1.99993 59.0752 2.00001H14.4432C12.8087 1.99853 11.19 2.31938 9.67966 2.94419C8.16931 3.56899 6.797 4.4855 5.64125 5.64125C4.4855 6.797 3.56899 8.16931 2.94419 9.67966C2.31938 11.19 1.99853 12.8087 2.00001 14.4432V101.557C1.99853 103.191 2.31938 104.81 2.94419 106.32C3.56899 107.831 4.4855 109.203 5.64125 110.359C6.797 111.514 8.16931 112.431 9.67966 113.056C11.19 113.681 12.8087 114.001 14.4432 114H76.6704C78.3049 114.001 79.9236 113.681 81.4339 113.056C82.9443 112.431 84.3166 111.514 85.4723 110.359C86.6281 109.203 87.5446 107.831 88.1694 106.32C88.7942 104.81 89.1151 103.191 89.1136 101.557V32.0384C89.1136 28.7456 87.8032 25.576 85.4624 23.2464V23.2464Z" stroke="#2ECC71" stroke-width="3" stroke-linecap="round" stroke-linejoin="round"/>
<path d="M63.7246 3.5L85.7246 25L87.2246 29.5V37L53.2246 2.5H59.2246L63.7246 3.5Z" fill="#2ECC71" stroke="#2ECC71"/>
<path d="M89.1061 38.4H59.986C58.0553 38.4 56.2036 37.633 54.8383 36.2677C53.4731 34.9025 52.7061 33.0508 52.7061 31.12V2" fill="#2ECC71"/>
<path d="M89.1061 38.4H59.986C58.0553 38.4 56.2036 37.633 54.8383 36.2677C53.4731 34.9025 52.7061 33.0508 52.7061 31.12V2" stroke="#2ECC71" stroke-width="3" stroke-linecap="round" stroke-linejoin="round"/>
</g>
<path d="M28.8457 49H75.934" stroke="#2ECC71" stroke-width="3" stroke-linecap="round" stroke-linejoin="round"/>
<path d="M16.1184 46C15.7233 45.9999 15.3321 46.0787 14.9678 46.2317C14.6035 46.3846 14.2734 46.6088 13.9968 46.8909C13.7202 47.173 13.5026 47.5076 13.3569 47.8748C13.2112 48.2421 13.1402 48.6347 13.1481 49.0297C13.1481 50.6931 14.5144 52 16.1778 52C16.9711 52.0002 17.7328 51.6892 18.2993 51.1338C18.8659 50.5784 19.1919 49.8229 19.2075 49.0297C19.1773 48.2256 18.8403 47.4636 18.2658 46.9002C17.6913 46.3368 16.9229 46.0146 16.1184 46" fill="#2ECC71"/>
<path d="M16.1184 46C15.7233 45.9999 15.3321 46.0787 14.9678 46.2317C14.6035 46.3846 14.2734 46.6088 13.9968 46.8909C13.7202 47.173 13.5026 47.5076 13.3569 47.8748C13.2112 48.2421 13.1402 48.6347 13.1481 49.0297C13.1481 50.6931 14.5144 52 16.1778 52C16.9711 52.0002 17.7328 51.6892 18.2993 51.1338C18.8659 50.5784 19.1919 49.8229 19.2075 49.0297C19.1773 48.2256 18.8403 47.4636 18.2658 46.9002C17.6913 46.3368 16.9229 46.0146 16.1184 46" stroke="#2ECC71" stroke-width="3" stroke-linecap="round" stroke-linejoin="round"/>
<path d="M76.6178 9.00002C75.9006 8.99987 75.1906 9.14427 74.5293 9.42472C73.868 9.70517 73.2688 10.116 72.7667 10.6333C72.2646 11.1506 71.8698 11.7638 71.6052 12.4371C71.3407 13.1104 71.2118 13.8302 71.2262 14.5544C71.2262 17.604 73.7063 20 76.7256 20C78.1657 20.0003 79.5484 19.4301 80.5767 18.4119C81.605 17.3937 82.1969 16.0086 82.2251 14.5544C82.1702 13.0802 81.5585 11.6833 80.5157 10.6503C79.4729 9.61737 78.0782 9.02681 76.6178 9.00002" fill="#2ECC71"/>
<path d="M76.6178 9.00002C75.9006 8.99987 75.1906 9.14427 74.5293 9.42472C73.868 9.70517 73.2688 10.116 72.7667 10.6333C72.2646 11.1506 71.8698 11.7638 71.6052 12.4371C71.3407 13.1104 71.2118 13.8302 71.2262 14.5544C71.2262 17.604 73.7063 20 76.7256 20C78.1657 20.0003 79.5484 19.4301 80.5767 18.4119C81.605 17.3937 82.1969 16.0086 82.2251 14.5544C82.1702 13.0802 81.5585 11.6833 80.5157 10.6503C79.4729 9.61737 78.0782 9.02681 76.6178 9.00002" stroke="#2ECC71" stroke-width="3" stroke-linecap="round" stroke-linejoin="round"/>
<path d="M28.8457 71H75.934" stroke="#2ECC71" stroke-width="3" stroke-linecap="round" stroke-linejoin="round"/>
<path d="M16.0893 68C15.698 67.9999 15.3107 68.0779 14.9499 68.2293C14.5892 68.3808 14.2623 68.6028 13.9884 68.8822C13.7145 69.1615 13.4991 69.4927 13.3548 69.8564C13.2105 70.22 13.1402 70.6089 13.148 71C13.148 72.6471 14.501 74 16.1481 74C17.7951 74 19.1481 72.6471 19.1481 71C19.1481 69.3529 17.7363 68 16.0893 68" fill="#2ECC71"/>
<path d="M16.0893 68C15.698 67.9999 15.3107 68.0779 14.9499 68.2293C14.5892 68.3808 14.2623 68.6028 13.9884 68.8822C13.7145 69.1615 13.4991 69.4927 13.3548 69.8564C13.2105 70.22 13.1402 70.6089 13.148 71C13.148 72.6471 14.501 74 16.1481 74C17.7951 74 19.1481 72.6471 19.1481 71C19.1481 69.3529 17.7363 68 16.0893 68" stroke="#2ECC71" stroke-width="3" stroke-linecap="round" stroke-linejoin="round"/>
<path d="M28.8457 93H75.934" stroke="#2ECC71" stroke-width="3" stroke-linecap="round" stroke-linejoin="round"/>
<path d="M16.1184 90C15.7233 89.9999 15.3321 90.0787 14.9678 90.2317C14.6035 90.3846 14.2734 90.6088 13.9968 90.8909C13.7202 91.173 13.5026 91.5076 13.3569 91.8748C13.2112 92.2421 13.1402 92.6347 13.1481 93.0297C13.1481 94.6931 14.5144 96 16.1778 96C16.9711 96.0002 17.7328 95.6892 18.2993 95.1338C18.8659 94.5784 19.1919 93.8229 19.2075 93.0297C19.1773 92.2256 18.8403 91.4636 18.2658 90.9002C17.6913 90.3368 16.9229 90.0146 16.1184 90" fill="#2ECC71"/>
<path d="M16.1184 90C15.7233 89.9999 15.3321 90.0787 14.9678 90.2317C14.6035 90.3846 14.2734 90.6088 13.9968 90.8909C13.7202 91.173 13.5026 91.5076 13.3569 91.8748C13.2112 92.2421 13.1402 92.6347 13.1481 93.0297C13.1481 94.6931 14.5144 96 16.1778 96C16.9711 96.0002 17.7328 95.6892 18.2993 95.1338C18.8659 94.5784 19.1919 93.8229 19.2075 93.0297C19.1773 92.2256 18.8403 91.4636 18.2658 90.9002C17.6913 90.3368 16.9229 90.0146 16.1184 90" stroke="#2ECC71" stroke-width="3" stroke-linecap="round" stroke-linejoin="round"/>
<path d="M111.725 61C114.518 52.6624 117.692 49.1007 125.725 46C117.387 43.2063 114.325 40.0321 111.225 32C108.431 40.3376 105.257 43.8993 97.2246 47C105.562 49.7937 108.624 52.9679 111.725 61Z" fill="#2ECC71"/>
<path d="M43.2334 154.018C44.9691 148.837 46.9412 146.625 51.9315 144.698C46.7514 142.962 44.8492 140.99 42.9227 136C41.187 141.18 39.2149 143.393 34.2246 145.319C39.4047 147.055 41.307 149.027 43.2334 154.018Z" fill="#2ECC71"/>
<path d="M21.2158 130.982C22.1775 128.112 23.2701 126.886 26.035 125.819C23.165 124.857 22.111 123.765 21.0437 121C20.0821 123.87 18.9894 125.096 16.2246 126.163C19.0946 127.125 20.1485 128.218 21.2158 130.982Z" fill="#2ECC71"/>
</svg>
