<svg width="49" height="48" viewBox="0 0 49 48" fill="none" xmlns="http://www.w3.org/2000/svg">
<g clip-path="url(#clip0_1201_2426)">
<path d="M24.5 48C38.031 48 49 37.2548 49 24C49 10.7452 38.031 0 24.5 0C10.969 0 0 10.7452 0 24C0 37.2548 10.969 48 24.5 48Z" fill="#FA911F"/>
<path d="M12.3176 10.2412C11.5652 10.2464 10.8451 10.5477 10.3131 11.0797C9.78106 11.6117 9.47985 12.3318 9.47461 13.0842V33.9302C9.47985 34.6826 9.78106 35.4027 10.3131 35.9347C10.8451 36.4668 11.5652 36.768 12.3176 36.7732H36.9536C37.706 36.768 38.4261 36.4668 38.9581 35.9347C39.4902 35.4027 39.7914 34.6826 39.7966 33.9302V13.0842C39.7914 12.3318 39.4902 11.6117 38.9581 11.0797C38.4261 10.5477 37.706 10.2464 36.9536 10.2412H12.3176ZM13.2646 14.0312H17.0546V17.8212H13.2646V14.0312ZM20.8446 14.0312H36.0066V17.8212H20.8456L20.8446 14.0312ZM13.2646 21.6112H17.0546V25.4012H13.2646V21.6112ZM20.8446 21.6112H36.0066V25.4012H20.8456L20.8446 21.6112ZM13.2646 29.1912H17.0546V32.9812H13.2646V29.1912ZM20.8446 29.1912H36.0066V32.9812H20.8456L20.8446 29.1912Z" fill="white"/>
</g>
<defs>
<clipPath id="clip0_1201_2426">
<rect width="49" height="48" fill="white"/>
</clipPath>
</defs>
</svg>
