<svg width="49" height="48" viewBox="0 0 49 48" fill="none" xmlns="http://www.w3.org/2000/svg">
<g clip-path="url(#clip0_1201_2481)">
<path d="M24.5 48C38.031 48 49 37.2548 49 24C49 10.7452 38.031 0 24.5 0C10.969 0 0 10.7452 0 24C0 37.2548 10.969 48 24.5 48Z" fill="#1967D2"/>
<path d="M36.469 21.5H26.625C25.7299 21.5 24.8714 21.1444 24.2385 20.5115C23.6056 19.8785 23.25 19.0201 23.25 18.125V8.281C23.25 8.20647 23.2204 8.135 23.1677 8.0823C23.115 8.02961 23.0435 8 22.969 8H16.5C15.3065 8 14.1619 8.47411 13.318 9.31802C12.4741 10.1619 12 11.3065 12 12.5V35C12 36.1935 12.4741 37.3381 13.318 38.182C14.1619 39.0259 15.3065 39.5 16.5 39.5H32.25C33.4435 39.5 34.5881 39.0259 35.432 38.182C36.2759 37.3381 36.75 36.1935 36.75 35V21.781C36.75 21.7065 36.7204 21.635 36.6677 21.5823C36.615 21.5296 36.5435 21.5 36.469 21.5V21.5ZM30 32.75H18.75C18.4516 32.75 18.1655 32.6315 17.9545 32.4205C17.7435 32.2095 17.625 31.9234 17.625 31.625C17.625 31.3266 17.7435 31.0405 17.9545 30.8295C18.1655 30.6185 18.4516 30.5 18.75 30.5H30C30.2984 30.5 30.5845 30.6185 30.7955 30.8295C31.0065 31.0405 31.125 31.3266 31.125 31.625C31.125 31.9234 31.0065 32.2095 30.7955 32.4205C30.5845 32.6315 30.2984 32.75 30 32.75ZM30 27.125H18.75C18.4516 27.125 18.1655 27.0065 17.9545 26.7955C17.7435 26.5845 17.625 26.2984 17.625 26C17.625 25.7016 17.7435 25.4155 17.9545 25.2045C18.1655 24.9935 18.4516 24.875 18.75 24.875H30C30.2984 24.875 30.5845 24.9935 30.7955 25.2045C31.0065 25.4155 31.125 25.7016 31.125 26C31.125 26.2984 31.0065 26.5845 30.7955 26.7955C30.5845 27.0065 30.2984 27.125 30 27.125Z" fill="#F6F9FC"/>
<path d="M35.851 19.01L25.74 8.899C25.7202 8.8795 25.6951 8.86628 25.6679 8.86098C25.6406 8.85569 25.6124 8.85856 25.5868 8.86924C25.5611 8.87993 25.5392 8.89794 25.5238 8.92102C25.5084 8.9441 25.5001 8.97123 25.5 8.999V18.126C25.5003 18.4242 25.6189 18.7101 25.8299 18.9208C26.0408 19.1316 26.3268 19.25 26.625 19.25H35.752C35.7798 19.2499 35.8069 19.2416 35.83 19.2262C35.8531 19.2108 35.8711 19.1889 35.8818 19.1632C35.8924 19.1376 35.8953 19.1094 35.89 19.0821C35.8847 19.0549 35.8715 19.0298 35.852 19.01H35.851Z" fill="#F6F9FC"/>
<path d="M27.928 29H37.567L37.568 29.001C38.0789 29.0026 38.5683 29.2062 38.9296 29.5674C39.2908 29.9287 39.4944 30.4182 39.496 30.929V40.569C39.4944 41.0799 39.2908 41.5693 38.9296 41.9306C38.5683 42.2918 38.0789 42.4954 37.568 42.497H27.928C27.417 42.4954 26.9274 42.2916 26.5661 41.9302C26.2048 41.5688 26.0013 41.079 26 40.568V30.928C26.0016 30.4172 26.2052 29.9277 26.5664 29.5664C26.9277 29.2052 27.4171 29.0016 27.928 29Z" fill="#1967D2"/>
<path d="M33.783 36.7811H37.639V34.8531H33.783V30.9971H31.855V34.8531H28V36.7811H31.855V40.6371H33.783V36.7811Z" fill="#F5F6F9"/>
</g>
<defs>
<clipPath id="clip0_1201_2481">
<rect width="49" height="48" fill="white"/>
</clipPath>
</defs>
</svg>
