<svg width="49" height="48" viewBox="0 0 49 48" fill="none" xmlns="http://www.w3.org/2000/svg">
<g clip-path="url(#clip0_1201_2449)">
<path d="M24.5 48C38.031 48 49 37.2548 49 24C49 10.7452 38.031 0 24.5 0C10.969 0 0 10.7452 0 24C0 37.2548 10.969 48 24.5 48Z" fill="#00897B"/>
<path d="M38 11H11C10.2051 11.0024 9.4434 11.3192 8.8813 11.8813C8.31921 12.4434 8.00237 13.2051 8 14V35C8.00237 35.7949 8.31921 36.5566 8.8813 37.1187C9.4434 37.6808 10.2051 37.9976 11 38H38C38.7949 37.9976 39.5566 37.6808 40.1187 37.1187C40.6808 36.5566 40.9976 35.7949 41 35V14C40.9976 13.2051 40.6808 12.4434 40.1187 11.8813C39.5566 11.3192 38.7949 11.0024 38 11V11ZM24.5 23H11V20H24.5V23ZM24.5 17H11V14H24.5V17Z" fill="#F6F9FC"/>
<path d="M38.681 34.217L35.591 31.127C35.5217 31.0579 35.4395 31.0032 35.3491 30.966C35.2587 30.9287 35.1618 30.9097 35.064 30.91H34.559C35.5681 29.6168 36.0459 27.9873 35.8951 26.3539C35.7442 24.7205 34.976 23.2061 33.7472 22.1196C32.5183 21.033 30.9212 20.4561 29.2816 20.5065C27.642 20.5568 26.0834 21.2306 24.9235 22.3905C23.7636 23.5504 23.0898 25.1091 23.0394 26.7487C22.9891 28.3883 23.566 29.9853 24.6525 31.2142C25.7391 32.4431 27.2535 33.2113 28.8869 33.3621C30.5203 33.513 32.1497 33.0351 33.443 32.026V32.531C33.4427 32.6288 33.4617 32.7257 33.4989 32.8161C33.5362 32.9066 33.5909 32.9888 33.66 33.058L36.75 36.148C36.8188 36.2173 36.9007 36.2722 36.9909 36.3098C37.0811 36.3473 37.1778 36.3666 37.2755 36.3666C37.3731 36.3666 37.4699 36.3473 37.56 36.3098C37.6502 36.2722 37.7321 36.2173 37.801 36.148L38.678 35.271C38.8173 35.131 38.8956 34.9415 38.8956 34.744C38.8956 34.5465 38.8173 34.357 38.678 34.217H38.681ZM29.481 30.91C28.6964 30.91 27.9294 30.6773 27.277 30.2414C26.6247 29.8055 26.1162 29.186 25.8159 28.4611C25.5157 27.7362 25.4371 26.9386 25.5902 26.1691C25.7433 25.3996 26.1211 24.6927 26.6759 24.1379C27.2307 23.5831 27.9375 23.2053 28.707 23.0522C29.4766 22.8992 30.2742 22.9777 30.9991 23.278C31.7239 23.5782 32.3435 24.0867 32.7794 24.7391C33.2153 25.3914 33.448 26.1584 33.448 26.943C33.4485 27.4645 33.3461 27.981 33.1467 28.4628C32.9473 28.9447 32.6548 29.3824 32.2859 29.751C31.917 30.1197 31.479 30.4119 30.997 30.6109C30.515 30.8099 29.9985 30.9119 29.477 30.911L29.481 30.91Z" fill="#F6F9FC" stroke="#00897B"/>
</g>
<defs>
<clipPath id="clip0_1201_2449">
<rect width="49" height="48" fill="white"/>
</clipPath>
</defs>
</svg>
