<svg width="49" height="48" viewBox="0 0 49 48" fill="none" xmlns="http://www.w3.org/2000/svg">
<path d="M24.5 48C38.031 48 49 37.2548 49 24C49 10.7452 38.031 0 24.5 0C10.969 0 0 10.7452 0 24C0 37.2548 10.969 48 24.5 48Z" fill="#91268E"/>
<path d="M29.1758 12.7647C31.6758 15.2647 31.6758 19.2353 29.1758 21.5882C26.6758 23.9412 22.7052 24.0882 20.3522 21.5882C17.9993 19.0882 17.8522 15.1176 20.3522 12.7647C22.8522 10.4118 26.6758 10.4118 29.1758 12.7647" stroke="white" stroke-width="2" stroke-linecap="round" stroke-linejoin="round"/>
<path d="M13 34.5294C13 30.8529 15.9412 27.9117 19.6176 27.9117H23.4412" stroke="white" stroke-width="2" stroke-linecap="round" stroke-linejoin="round"/>
<path d="M27.7059 36H31.0882L36.0882 31C36.6765 30.4118 36.6765 29.5295 36.0882 28.9412L34.7647 27.6177C34.1765 27.0295 33.2941 27.0295 32.7059 27.6177L27.7059 32.6177V36Z" stroke="white" stroke-width="2" stroke-linecap="round" stroke-linejoin="round"/>
</svg>
