<svg width="49" height="49" viewBox="0 0 49 49" fill="none" xmlns="http://www.w3.org/2000/svg">
<path d="M24.5 0.00126266C30.9313 -0.0643203 37.1253 2.42723 41.7198 6.92795C46.3143 11.4287 48.933 17.57 49 24.0013C48.933 30.4325 46.3143 36.5739 41.7198 41.0746C37.1253 45.5753 30.9313 48.0668 24.5 48.0013C18.0687 48.0668 11.8747 45.5753 7.28022 41.0746C2.68574 36.5739 0.0670208 30.4325 0 24.0013C0.0670208 17.57 2.68574 11.4287 7.28022 6.92795C11.8747 2.42723 18.0687 -0.0643203 24.5 0.00126266V0.00126266Z" fill="#00A54F"/>
<path d="M16.1667 21.7222V14.7778C16.1667 14.0411 16.4593 13.3345 16.9803 12.8136C17.5012 12.2927 18.2077 12 18.9444 12H34.2222C34.9589 12 35.6655 12.2927 36.1864 12.8136C36.7073 13.3345 37 14.0411 37 14.7778V34.2222C37 34.9589 36.7073 35.6655 36.1864 36.1864C35.6655 36.7073 34.9589 37 34.2222 37H28.6667" stroke="white" stroke-width="2" stroke-linecap="round" stroke-linejoin="round"/>
<path d="M21.7222 17.5555H31.4445" stroke="white" stroke-width="2" stroke-linecap="round" stroke-linejoin="round"/>
<path d="M24.5 23.1111H31.4444" stroke="white" stroke-width="2" stroke-linecap="round" stroke-linejoin="round"/>
<path d="M31.4444 28.6666H28.6667" stroke="white" stroke-width="2" stroke-linecap="round" stroke-linejoin="round"/>
<path d="M14.6958 36.9654H12.7764C12.6744 36.9654 12.5735 36.9453 12.4793 36.9063C12.3851 36.8673 12.2995 36.8101 12.2274 36.738C12.1553 36.6659 12.0981 36.5803 12.0591 36.4862C12.0201 36.392 12 36.291 12 36.189V30.1029C12 30.001 12.0201 29.9 12.0591 29.8058C12.0981 29.7116 12.1553 29.626 12.2274 29.5539C12.2995 29.4818 12.3851 29.4247 12.4793 29.3856C12.5735 29.3466 12.6744 29.3265 12.7764 29.3265H14.6958C14.7996 29.3282 14.9021 29.3502 14.9973 29.3915C15.0926 29.4327 15.1788 29.4923 15.251 29.5668C15.3232 29.6414 15.3801 29.7294 15.4183 29.8259C15.4565 29.9224 15.4753 30.0255 15.4736 30.1293V36.2404C15.4629 36.4384 15.3758 36.6245 15.2308 36.7597C15.0858 36.8948 14.8941 36.9686 14.6958 36.9654V36.9654Z" stroke="white" stroke-linecap="round" stroke-linejoin="round"/>
<path d="M15.4722 30.9721L18.0389 26.7819C18.2523 26.4348 18.573 26.1666 18.9524 26.018C19.3318 25.8694 19.7493 25.8485 20.1417 25.9584C20.5341 26.0682 20.88 26.3029 21.1271 26.6269C21.3742 26.9509 21.509 27.3466 21.5111 27.7541V29.9763H23.6083C23.9186 29.9765 24.2241 30.0534 24.4975 30.2002C24.7708 30.3471 25.0036 30.5593 25.175 30.818C25.3281 31.0481 25.4294 31.3088 25.4718 31.5819C25.5143 31.8551 25.4969 32.1342 25.4208 32.3999L24.4042 35.9583C24.3204 36.2502 24.1439 36.507 23.9014 36.6899C23.6589 36.8728 23.3635 36.9719 23.0597 36.9721H18.0861C17.6805 36.972 17.2876 36.8306 16.975 36.5721L15.4722 35.3221" stroke="white" stroke-linecap="round" stroke-linejoin="round"/>
</svg>
