<svg width="25" height="27" viewBox="0 0 25 27" fill="none" xmlns="http://www.w3.org/2000/svg">
<path d="M21.8334 5.16667V24.9583C21.8334 25.2346 21.7236 25.4996 21.5283 25.6949C21.3329 25.8903 21.068 26 20.7917 26H4.12504C3.84877 26 3.58382 25.8903 3.38847 25.6949C3.19312 25.4996 3.08337 25.2346 3.08337 24.9583V5.16667" fill="#E7AAAA"/>
<path d="M21.8334 5.16667V24.9583C21.8334 25.2346 21.7236 25.4996 21.5283 25.6949C21.3329 25.8903 21.068 26 20.7917 26H4.12504C3.84877 26 3.58382 25.8903 3.38847 25.6949C3.19312 25.4996 3.08337 25.2346 3.08337 24.9583V5.16667" stroke="#F15858" stroke-width="2" stroke-linecap="round" stroke-linejoin="round"/>
<path d="M23.9167 5.16667H1" stroke="#F15858" stroke-width="2" stroke-linecap="round" stroke-linejoin="round"/>
<path d="M9.33337 11.4167V19.75" stroke="#F15858" stroke-width="2" stroke-linecap="round" stroke-linejoin="round"/>
<path d="M15.5834 11.4167V19.75" stroke="#F15858" stroke-width="2" stroke-linecap="round" stroke-linejoin="round"/>
<path d="M17.6667 5.16667V3.08333C17.6667 2.5308 17.4472 2.00089 17.0565 1.61019C16.6658 1.21949 16.1359 1 15.5833 1H9.33333C8.7808 1 8.2509 1.21949 7.86019 1.61019C7.46949 2.00089 7.25 2.5308 7.25 3.08333V5.16667" stroke="#F15858" stroke-width="2" stroke-linecap="round" stroke-linejoin="round"/>
</svg>
