<svg width="27" height="27" viewBox="0 0 27 27" fill="none" xmlns="http://www.w3.org/2000/svg">
<path d="M2.74696 19.8735C1.19442 17.2541 0.651356 14.1581 1.21973 11.1667C1.7881 8.17531 3.42882 5.49423 5.83387 3.62681C8.23892 1.75938 11.2429 0.834038 14.2818 1.02449C17.3208 1.21494 20.1857 2.50809 22.3388 4.66117C24.4919 6.81426 25.7851 9.6792 25.9755 12.7182C26.166 15.7571 25.2406 18.7611 23.3732 21.1661C21.5058 23.5712 18.8247 25.2119 15.8333 25.7803C12.8419 26.3486 9.74589 25.8056 7.12651 24.253V24.253L2.7991 25.4783C2.6218 25.5301 2.43382 25.5333 2.25486 25.4876C2.07589 25.4418 1.91254 25.3487 1.78192 25.2181C1.6513 25.0875 1.55822 24.9241 1.51245 24.7451C1.46667 24.5662 1.46987 24.3782 1.52173 24.2009L2.74696 19.8735Z" fill="#C0CFF1" stroke="#2966F0" stroke-width="2" stroke-linecap="round" stroke-linejoin="round"/>
<path d="M9.34241 11.4011H17.6844" stroke="#2966F0" stroke-width="2" stroke-linecap="round" stroke-linejoin="round"/>
<path d="M9.34241 15.5721H17.6844" stroke="#2966F0" stroke-width="2" stroke-linecap="round" stroke-linejoin="round"/>
</svg>
