<svg width="23" height="27" viewBox="0 0 23 27" fill="none" xmlns="http://www.w3.org/2000/svg">
<path d="M5.16675 5.16667V2.04167C5.16675 1.7654 5.27649 1.50045 5.47185 1.3051C5.6672 1.10975 5.93215 1 6.20841 1H16.6251L21.8334 6.20833V20.7917C21.8334 21.0679 21.7237 21.3329 21.5283 21.5282C21.333 21.7236 21.068 21.8333 20.7917 21.8333H17.6667" fill="#D7EDF8"/>
<path d="M5.16675 5.16667V2.04167C5.16675 1.7654 5.27649 1.50045 5.47185 1.3051C5.6672 1.10975 5.93215 1 6.20841 1H16.6251L21.8334 6.20833V20.7917C21.8334 21.0679 21.7237 21.3329 21.5283 21.5282C21.333 21.7236 21.068 21.8333 20.7917 21.8333H17.6667" stroke="#277396" stroke-width="2" stroke-linecap="round" stroke-linejoin="round"/>
<path d="M16.625 26H2.04167C1.7654 26 1.50045 25.8902 1.3051 25.6949C1.10975 25.4995 1 25.2346 1 24.9583V6.20832C1 5.93206 1.10975 5.6671 1.3051 5.47175C1.50045 5.2764 1.7654 5.16666 2.04167 5.16666H12.4583L17.6667 10.375V24.9583C17.6667 25.2346 17.5569 25.4995 17.3616 25.6949C17.1662 25.8902 16.9013 26 16.625 26Z" fill="#D7EDF8" stroke="#277396" stroke-width="2" stroke-linecap="round" stroke-linejoin="round"/>
<path d="M6.20825 16.625H12.4583" stroke="#277396" stroke-width="2" stroke-linecap="round" stroke-linejoin="round"/>
<path d="M6.20825 20.7917H12.4583" stroke="#277396" stroke-width="2" stroke-linecap="round" stroke-linejoin="round"/>
</svg>
